<?xml version="1.0" encoding="UTF-8"?>
<svg id="Camada_2" data-name="Camada 2" xmlns="http://www.w3.org/2000/svg" viewBox="0 0 263.36 58.39">
  <defs>
    <style>
      .cls-1 {
        fill: #ed1c2f;
      }
    </style>
  </defs>
  <g id="Camada_1-2" data-name="Camada 1">
    <path class="cls-1" d="M25.33,18.73h0c.81,0,1.61-.01,2.42-.03.84-.01,1.67-.09,2.51-.19.85-.1,1.69-.24,2.53-.43,1.09-.25,2.16-.58,3.17-1.07.56-.27,1.1-.59,1.59-.98.44-.35.84-.74,1.16-1.21.61-.89.87-1.86.74-2.94-.09-.73-.39-1.35-.88-1.89-.23-.26-.49-.48-.78-.68-.37-.25-.76-.46-1.17-.63-.78-.33-1.59-.53-2.42-.68-1.06-.19-2.12-.26-3.19-.29-.56-.02-1.12,0-1.68,0-.64.02-1.28.04-1.92.07-.64.03-1.28.05-1.92.13-.74.09-.61-.02-.8.64-.95,3.22-1.9,6.43-2.84,9.65-.04.13-.06.25-.09.38,0,.04.03.11.08.11.15.01.29.03.44.03,1.02,0,2.04,0,3.06,0M23.33,25.89c-1.23,0-2.27,0-3.31,0-.15,0-.3,0-.44,0-.11,0-.18.07-.22.17-.05.14-.09.28-.13.43-.42,1.44-.83,2.88-1.25,4.31-.74,2.57-1.48,5.15-2.23,7.72-.16.54-.11.5.38.56.11.01.23.02.35.03,1.05.03,2.1.06,3.16.08,1.09.02,2.17-.02,3.26-.05.61-.02,1.22-.08,1.82-.14.62-.06,1.24-.15,1.86-.25,1.12-.19,2.22-.44,3.3-.8.89-.3,1.75-.67,2.56-1.15.55-.33,1.07-.71,1.53-1.16.9-.88,1.47-1.92,1.63-3.19.08-.61.05-1.22-.08-1.81-.22-.93-.71-1.69-1.42-2.32-.38-.34-.81-.62-1.26-.85-.66-.35-1.35-.6-2.07-.8-.68-.19-1.38-.33-2.08-.44-.75-.12-1.5-.21-2.26-.25-1.1-.06-2.2-.13-3.11-.09M32,0s.11.08.17.08c.2,0,.39.02.59.02,1.04,0,2.07.07,3.11.14.84.06,1.67.13,2.51.24.72.09,1.43.19,2.15.32,1.9.33,3.76.83,5.55,1.54.61.24,1.23.47,1.82.76,1.07.52,2.08,1.14,2.98,1.92.65.56,1.22,1.19,1.7,1.92.57.86.95,1.8,1.1,2.83.05.32.06.66.07.98.02,1.61-.43,3.08-1.29,4.44-.68,1.05-1.54,1.92-2.52,2.69-1.02.79-2.13,1.43-3.3,1.98-1.44.67-2.93,1.18-4.46,1.58-.53.14-1.06.25-1.58.38-.06.01-.13.02-.19.05-.04.02-.08.07-.08.11,0,.04.03.1.06.12.05.03.12.05.18.07.69.17,1.37.35,2.04.58,1.02.35,1.99.78,2.92,1.32.88.52,1.7,1.14,2.41,1.88,1.05,1.09,1.8,2.35,2.17,3.82.16.62.26,1.26.26,1.9,0,.1,0,.2,0,.3.03,1.9-.53,3.63-1.55,5.22-.57.89-1.27,1.68-2.05,2.4-.91.84-1.91,1.56-2.98,2.2-1.77,1.06-3.64,1.92-5.6,2.57-1.5.5-3.03.89-4.58,1.2-.87.18-1.75.33-2.63.46-.6.09-1.2.16-1.81.24-.77.09-1.53.18-2.31.26-.61.06-1.21.09-1.82.14-.81.05-1.61.1-2.41.15-.1,0-.2.01-.3.01-.92.03-1.84.07-2.76.08-1.58.02-3.16.02-4.74.03-.81,0-1.61-.01-2.42-.03-1.14-.02-2.27-.05-3.41-.09-.74-.02-1.48-.06-2.22-.1-.74-.04-1.48-.1-2.22-.15-.56-.04-1.12-.08-1.67-.12-.54-.05-1.08-.11-1.62-.17-.34-.04-.69-.08-1.03-.13-.05,0-.1-.02-.15-.02-.06,0-.12-.09-.1-.15.02-.08.03-.16.06-.24.46-1.58.91-3.16,1.37-4.74,1.63-5.61,3.25-11.21,4.88-16.82,1.37-4.71,2.72-9.42,4.1-14.12.9-3.08,1.75-6.17,2.62-9.26.04-.14.08-.28.13-.43.02-.06.07-.11.14-.12.05,0,.1,0,.15-.01.1,0,.2,0,.3,0,3.13,0,6.26,0,9.39-.01.58,0,1.15-.04,1.73-.05.71-.02,1.42-.04,2.12-.06.28,0,.56-.01.84-.01.08,0,.16-.02.22-.08h3.95Z"/>
    <path class="cls-1" d="M47.91,58.39c.02-.06.01-.13-.02-.19-.13-.27-.26-.53-.39-.8-1.16-2.36-2.33-4.72-3.49-7.08-.05-.1-.09-.21-.13-.32,0-.02.01-.07.03-.08.07-.04.15-.07.22-.09.79-.17,1.57-.38,2.34-.61,1.46-.42,2.88-.93,4.25-1.59,1.95-.95,3.77-2.09,5.4-3.53.75-.67,1.45-1.39,2.06-2.19.14-.18.28-.37.4-.56.2-.31.25-.63.16-.99-.08-.31-.21-.59-.36-.86-.71-1.23-1.41-2.45-2.12-3.68-2.62-4.55-5.23-9.1-7.85-13.65-.07-.13-.14-.26-.21-.39-.03-.05,0-.15.05-.17.1-.06.2-.11.31-.16.75-.41,1.49-.85,2.19-1.33,1.28-.88,2.47-1.86,3.53-3,.51-.56.99-1.15,1.4-1.78.47-.7.85-1.45,1.13-2.24.03-.09.05-.19.14-.26.03.02.06.03.08.05.06.08.11.17.16.25,2.58,4.59,5.16,9.18,7.65,13.82.62,1.15,1.21,2.3,1.8,3.46.23.44.42.89.63,1.34.03.06.06.12.09.17.04.07.17.09.21.03.05-.07.09-.13.14-.2.32-.52.63-1.04.96-1.56,1.84-2.89,3.67-5.78,5.52-8.66,1.39-2.18,2.8-4.35,4.2-6.52.08-.12.17-.25.24-.37.07-.12.17-.19.32-.18.13,0,.26,0,.4,0h12.11c.18,0,.36.01.54.02.04,0,.08.07.06.11-.08.15-.15.29-.24.43-.58.92-1.16,1.84-1.75,2.75-3.08,4.79-6.27,9.51-9.58,14.15-2.11,2.95-4.27,5.85-6.52,8.69-1.71,2.15-3.47,4.27-5.32,6.3-1.16,1.26-2.35,2.49-3.61,3.65-.72.66-1.46,1.29-2.24,1.87-.13.1-.27.19-.4.28-1.36.87-2.75,1.69-4.18,2.43-2.37,1.23-4.84,2.14-7.44,2.73-.75.17-1.51.32-2.28.43-.1.01-.2.03-.27.11h-.3Z"/>
    <path class="cls-1" d="M251.47,29.13c.03-.75-.07-1.55-.37-2.31-.34-.87-.9-1.56-1.67-2.08-.34-.23-.71-.42-1.1-.56-.76-.29-1.56-.43-2.36-.47-.58-.03-1.15-.02-1.72.06-.69.1-1.36.25-2.01.49-1.38.51-2.56,1.33-3.59,2.39-2.04,2.1-3.37,5.21-3.51,7.82-.07.48-.02.96.05,1.43.25,1.52,1.04,2.68,2.39,3.44.47.27.98.46,1.51.6.5.13,1,.19,1.51.23.91.07,1.81,0,2.7-.2,1.17-.27,2.23-.77,3.21-1.48.98-.71,1.82-1.57,2.52-2.56,1.43-2.02,2.27-4.25,2.45-6.79M263.36,30.43c-.06.06-.09.14-.1.22-.07,1.11-.39,2.17-.78,3.2-.76,2.03-1.93,3.81-3.43,5.38-1.6,1.67-3.46,2.99-5.51,4.05-1.97,1.02-4.05,1.74-6.2,2.25-.95.22-1.9.4-2.86.52-.62.08-1.24.15-1.87.2-1.66.15-3.32.14-4.99.05-.75-.04-1.51-.13-2.26-.25-1.19-.18-2.36-.44-3.51-.81-1.24-.4-2.43-.92-3.54-1.61-.95-.58-1.81-1.27-2.55-2.09-1.05-1.15-1.79-2.48-2.17-3.99-.2-.8-.29-1.62-.28-2.44,0-.66.04-1.32.15-1.97.17-1.06.44-2.09.83-3.09.68-1.75,1.66-3.32,2.9-4.74,1.42-1.63,3.09-2.96,4.95-4.05,1.81-1.07,3.73-1.88,5.75-2.47,1.17-.34,2.36-.61,3.56-.81.78-.13,1.56-.23,2.35-.3,1.31-.12,2.63-.19,3.95-.15.77.02,1.55.06,2.32.15.57.06,1.14.13,1.71.23,1.79.3,3.53.79,5.18,1.58.99.47,1.91,1.03,2.76,1.72,1.1.89,2.01,1.94,2.68,3.2.32.6.56,1.23.74,1.88.06.24.13.48.13.73,0,.1.03.19.1.27v3.16Z"/>
    <path class="cls-1" d="M145.71,18.03c-.06.1-.11.2-.18.3-3.09,4.67-6.19,9.33-9.28,13.99-2.24,3.38-4.48,6.75-6.72,10.12-.51.77-1.02,1.54-1.53,2.31-.06.1-.13.19-.2.28-.04.05-.1.09-.17.09-.13,0-.26,0-.4,0h-10.62c-.62,0-.55.04-.64-.54-.09-.59-.17-1.17-.25-1.76-.09-.64-.18-1.27-.27-1.91-.08-.59-.15-1.18-.23-1.76-.08-.62-.17-1.24-.26-1.86-.08-.59-.16-1.18-.23-1.76-.09-.65-.18-1.3-.26-1.96-.08-.6-.16-1.21-.23-1.81-.09-.67-.17-1.34-.26-2.01-.04-.31-.08-.62-.12-.93-.13-1.04-.26-2.09-.39-3.13-.08-.69-.15-1.37-.23-2.06-.08-.73-.17-1.47-.25-2.21-.05-.46-.09-.92-.13-1.38-.07-.75-.13-1.51-.2-2.26,0-.03-.03-.06-.04-.08-.01-.03-.09.02-.11.08-.03.08-.06.15-.09.23-.25.73-.51,1.46-.76,2.19-1.73,5.04-3.47,10.08-5.2,15.12-1.13,3.3-2.27,6.6-3.4,9.89-.04.12-.09.25-.13.37-.02.04-.06.08-.09.12-.2.05-.4.03-.59.03-3.25,0-6.49,0-9.74,0-.31,0-.63,0-.94,0-.06,0-.13-.01-.19-.03-.02,0-.05-.05-.05-.07-.02-.14.06-.25.1-.38.57-1.51,1.14-3.02,1.71-4.53,2.04-5.42,4.08-10.84,6.13-16.26,2.03-5.37,4.05-10.75,6.08-16.12.08-.2.15-.4.24-.61.08-.01.16-.04.24-.04.13,0,.26,0,.39,0,5.07,0,10.15,0,15.22,0,.18,0,.36,0,.54.01.07,0,.13.06.14.12.03.23.06.46.09.69.04.33.07.65.09.98.05.51.09,1.02.13,1.53.05.51.1,1.02.15,1.52.04.38.07.75.11,1.13.04.51.09,1.02.13,1.52.05.51.1,1.02.15,1.52.04.38.07.75.11,1.13.05.49.09.98.13,1.47.05.52.1,1.05.15,1.57.05.53.09,1.05.14,1.57.06.71.11,1.41.17,2.12.03.43.07.85.1,1.28.05.59.09,1.18.13,1.77.05.8.11,1.61.16,2.41,0,.06.01.13.01.2.02,1.17.11,2.33.11,3.5,0,.1,0,.2.02.29,0,.02.04.04.07.05,0,0,.03,0,.04-.01.08-.1.17-.2.24-.31.66-.96,1.32-1.93,1.98-2.89,4.12-6.03,8.25-12.07,12.38-18.1,1.06-1.55,2.12-3.1,3.18-4.65.35-.5.23-.44.83-.44,4.83,0,9.65,0,14.48,0,.13,0,.26,0,.4,0,.04,0,.09.03.14.05,0,.19-.04.36-.08.54-.42,1.96-.84,3.93-1.25,5.89-.38,1.77-.76,3.54-1.14,5.31-.34,1.61-.68,3.22-1.03,4.83-.31,1.48-.63,2.96-.95,4.44-.35,1.62-.69,3.25-1.04,4.87-.31,1.45-.62,2.9-.93,4.34-.35,1.62-.69,3.25-1.04,4.88-.17.82-.34,1.64-.52,2.46-.03.12-.04.26-.14.38-.05,0-.12.02-.18.03-.15,0-.3,0-.45,0-3.46,0-6.92,0-10.38,0-.18,0-.36,0-.54-.02-.04,0-.09-.07-.08-.11.03-.14.07-.29.1-.43,1.14-4.17,2.28-8.35,3.43-12.52,1.23-4.47,2.47-8.94,3.74-13.4.09-.3.18-.6.26-.9.03-.12.03-.23-.04-.33,0,0,.03.02.03.02l-.02-.02Z"/>
    <path class="cls-1" d="M175.41,40.2c.21-.01.59-.03.96-.05.65-.04,1.27-.18,1.88-.38,1.52-.49,2.81-1.36,3.91-2.5,1.52-1.59,2.54-3.47,3.14-5.58.25-.91.41-1.83.41-2.77,0-.43-.02-.85-.12-1.28-.29-1.32-.99-2.35-2.16-3.05-.33-.2-.67-.35-1.03-.47-.52-.17-1.05-.28-1.59-.35-.91-.11-1.81-.09-2.71.06-1.08.18-2.1.55-3.04,1.11-1.09.64-2.03,1.46-2.82,2.45-1.56,1.96-2.53,4.18-2.83,6.68-.07.61-.08,1.21.02,1.82.23,1.41.93,2.51,2.13,3.3.44.29.93.5,1.43.66.73.23,1.48.31,2.41.36M181.19,17.5c.88,0,1.75.06,2.62.12,1.72.14,3.43.43,5.08.96,1.2.38,2.35.86,3.43,1.49,1.15.67,2.18,1.48,3.05,2.49.86.99,1.51,2.11,1.9,3.37.19.61.32,1.24.38,1.88.05.59.05,1.18,0,1.77-.21,3.21-1.38,6.03-3.38,8.53-1.32,1.65-2.91,3-4.69,4.13-1.63,1.04-3.38,1.85-5.2,2.47-1.43.49-2.9.86-4.39,1.12-.83.15-1.66.26-2.49.35-.59.07-1.18.1-1.77.12-1.07.04-2.14.05-3.21,0-.72-.03-1.44-.1-2.16-.18-.83-.1-1.66-.24-2.48-.43-1.38-.32-2.73-.76-4.01-1.38-1.28-.62-2.46-1.4-3.48-2.41-1.04-1.04-1.84-2.23-2.32-3.63-.24-.7-.39-1.42-.47-2.16-.1-.96-.03-1.91.1-2.85.31-2.29,1.16-4.38,2.44-6.29,1.1-1.64,2.47-3.04,4.03-4.24,1.95-1.5,4.1-2.62,6.41-3.45,1.49-.54,3.01-.94,4.57-1.23.78-.14,1.56-.26,2.34-.35.59-.06,1.18-.12,1.77-.14.64-.02,1.28-.06,1.92-.09"/>
    <path class="cls-1" d="M223.6,25.06c-.12.01-.23.03-.35.03-.38,0-.76,0-1.14,0-1.68,0-3.36,0-5.04,0-.17,0-.33,0-.49.02-.07,0-.13.05-.15.12-.04.16-.08.32-.12.48-.34,1.73-.68,3.45-1.03,5.18-.55,2.72-1.11,5.45-1.68,8.17-.14.69-.31,1.38-.47,2.07-.14.56-.35,1.1-.62,1.61-.46.88-1.09,1.6-1.91,2.16-.57.39-1.2.69-1.85.93-.73.26-1.48.45-2.24.6-.76.14-1.53.25-2.3.32-.87.09-1.74.16-2.61.19-.57.02-1.15.05-1.73.08-.15,0-.3,0-.44,0-.06,0-.11-.08-.1-.14,0-.05,0-.1.02-.15.37-1.67.74-3.34,1.12-5.01.08-.37.16-.74.24-1.11.02-.1.05-.19.08-.28.02-.04.06-.08.1-.1.07-.04.15-.06.23-.09.26-.11.52-.21.77-.33.86-.44,1.46-1.11,1.8-2.01.16-.42.27-.85.36-1.28.28-1.39.55-2.78.81-4.17.22-1.13.43-2.26.64-3.39.21-1.12.41-2.23.62-3.35.02-.11.02-.23.03-.34,0-.05-.07-.13-.13-.13-.16,0-.33-.01-.49-.01-1.25,0-2.5,0-3.76,0-.15,0-.29,0-.44-.01-.06,0-.12-.08-.11-.14.07-.45.14-.91.22-1.36.12-.71.23-1.43.35-2.14.11-.68.21-1.37.33-2.05.08-.42.03-.45.54-.45,1.3,0,2.6,0,3.9,0,.16,0,.33,0,.49,0,.18,0,.24-.06.27-.22.1-.57.2-1.13.29-1.7.15-.89.31-1.78.46-2.67.11-.65.22-1.3.33-1.95.02-.1.04-.19.06-.29.02-.08.08-.15.17-.15.16-.01.33-.02.49-.02.95,0,1.91,0,2.87,0,2.01,0,4.02,0,6.03,0,.18,0,.36.01.54.02.07,0,.12.07.12.13-.02.16-.03.33-.06.49-.26,1.49-.52,2.98-.78,4.47-.08.47-.17.94-.25,1.41-.02.11-.03.23-.03.34,0,.05.03.1.08.11.05.01.1.03.14.03.18,0,.36,0,.54,0,1.93,0,3.85,0,5.78,0,.16,0,.33.01.49.02.06,0,.12.08.11.14-.06.34-.11.68-.17,1.02-.22,1.18-.44,2.36-.66,3.54-.07.37-.14.74-.21,1.11-.02.1-.06.19-.09.29"/>
  </g>
</svg>